<mxfile host="app.diagrams.net" modified="2023-07-09T00:00:37.741Z" agent="Mozilla/5.0 (Windows NT 10.0; Win64; x64; rv:109.0) Gecko/20100101 Firefox/114.0" etag="T2yZMmKTDuoYT3VejnBX" version="21.6.1" type="device">
  <diagram id="v1XMCOAVlx_9Xje5R6Ap" name="Page-1">
    <mxGraphModel dx="1434" dy="746" grid="1" gridSize="10" guides="1" tooltips="1" connect="1" arrows="1" fold="1" page="1" pageScale="1" pageWidth="850" pageHeight="1100" math="0" shadow="0">
      <root>
        <mxCell id="0" />
        <mxCell id="1" parent="0" />
        <mxCell id="c-rU0wkiur5srpV1t2_g-6" style="edgeStyle=orthogonalEdgeStyle;rounded=0;orthogonalLoop=1;jettySize=auto;html=1;fontFamily=Times New Roman;fontSize=20;" parent="1" source="c-rU0wkiur5srpV1t2_g-1" target="c-rU0wkiur5srpV1t2_g-3" edge="1">
          <mxGeometry relative="1" as="geometry" />
        </mxCell>
        <mxCell id="c-rU0wkiur5srpV1t2_g-1" value="&lt;font face=&quot;Fira Sans&quot; data-font-src=&quot;https://fonts.googleapis.com/css?family=Fira+Sans&quot; size=&quot;1&quot;&gt;&lt;b style=&quot;font-size: 20px&quot;&gt;Problema Central&lt;/b&gt;&lt;/font&gt;" style="rounded=0;whiteSpace=wrap;html=1;fillColor=none;fontSize=15;" parent="1" vertex="1">
          <mxGeometry x="35" y="320" width="170" height="40" as="geometry" />
        </mxCell>
        <mxCell id="c-rU0wkiur5srpV1t2_g-3" value="&lt;font style=&quot;font-size: 20px&quot;&gt;Efectos&lt;/font&gt;" style="rounded=0;whiteSpace=wrap;html=1;fillColor=none;fontSize=15;fontFamily=Fira Sans;fontSource=https%3A%2F%2Ffonts.googleapis.com%2Fcss%3Ffamily%3DFira%2BSans;" parent="1" vertex="1">
          <mxGeometry x="40" y="40" width="160" height="40" as="geometry" />
        </mxCell>
        <mxCell id="c-rU0wkiur5srpV1t2_g-5" style="edgeStyle=orthogonalEdgeStyle;rounded=0;orthogonalLoop=1;jettySize=auto;html=1;fontFamily=Times New Roman;fontSize=20;endArrow=block;endFill=1;" parent="1" source="c-rU0wkiur5srpV1t2_g-4" target="c-rU0wkiur5srpV1t2_g-1" edge="1">
          <mxGeometry relative="1" as="geometry" />
        </mxCell>
        <mxCell id="c-rU0wkiur5srpV1t2_g-4" value="&lt;font style=&quot;font-size: 20px&quot; face=&quot;Fira Sans&quot; data-font-src=&quot;https://fonts.googleapis.com/css?family=Fira+Sans&quot;&gt;Causas&lt;/font&gt;" style="rounded=0;whiteSpace=wrap;html=1;fillColor=none;fontStyle=0;fontSize=15;" parent="1" vertex="1">
          <mxGeometry x="40" y="600" width="160" height="40" as="geometry" />
        </mxCell>
        <mxCell id="c-rU0wkiur5srpV1t2_g-11" value="" style="html=1;shadow=0;dashed=0;align=center;verticalAlign=middle;shape=mxgraph.arrows2.arrow;dy=0;dx=30;notch=30;fontFamily=Times New Roman;fontSize=20;fillColor=#000000;" parent="1" vertex="1">
          <mxGeometry x="820" y="110" width="80" height="40" as="geometry" />
        </mxCell>
        <mxCell id="c-rU0wkiur5srpV1t2_g-13" value="&lt;font data-font-src=&quot;https://fonts.googleapis.com/css?family=Fira+Sans&quot; style=&quot;font-size: 20px&quot; face=&quot;Fira Sans&quot;&gt;&lt;b&gt;&lt;font style=&quot;font-size: 20px&quot;&gt;Objetivo General&lt;/font&gt;&lt;/b&gt;&lt;br&gt;&lt;/font&gt;&lt;div style=&quot;text-align: justify&quot;&gt;&lt;font data-font-src=&quot;https://fonts.googleapis.com/css?family=Fira+Sans&quot; style=&quot;font-size: 20px&quot; face=&quot;Fira Sans&quot;&gt;&lt;span style=&quot;font-weight: bold&quot;&gt;&#x9;&lt;/span&gt;&lt;span&gt;&lt;font style=&quot;font-size: 20px&quot;&gt;Definir, diseñar e implementar la integración de datos que generó la Convención Constitucional con fuentes externas, permitiendo así realizar un análisis en profundidad del proceso a través de visualizaciones.&lt;/font&gt;&lt;/span&gt;&lt;/font&gt;&lt;/div&gt;&lt;div style=&quot;text-align: justify&quot;&gt;&lt;font style=&quot;font-size: 20px&quot;&gt;&lt;br&gt;&lt;/font&gt;&lt;/div&gt;&lt;div style=&quot;text-align: justify&quot;&gt;&lt;span&gt;&lt;font data-font-src=&quot;https://fonts.googleapis.com/css?family=Fira+Sans&quot; style=&quot;font-size: 20px&quot; face=&quot;Fira Sans&quot;&gt;&lt;b&gt;Objetivos Específicos&lt;/b&gt;&lt;/font&gt;&lt;/span&gt;&lt;/div&gt;&lt;div style=&quot;text-align: justify&quot;&gt;&lt;ul&gt;&lt;li&gt;&lt;font data-font-src=&quot;https://fonts.googleapis.com/css?family=Fira+Sans&quot; style=&quot;font-size: 20px&quot; face=&quot;Fira Sans&quot;&gt;Diseñar una ontología de estructura y comunicación para los datos provistos por la Biblioteca del Congreso Nacional sobre la Convención Constitucional.&lt;/font&gt;&lt;/li&gt;&lt;li&gt;&lt;font data-font-src=&quot;https://fonts.googleapis.com/css?family=Fira+Sans&quot; style=&quot;font-size: 20px&quot; face=&quot;Fira Sans&quot;&gt;Integrar los datos de la Convención Constitucional con los datos de la plataforma &lt;i&gt;Constitute Project &lt;/i&gt;a través de un grafo RDF.&lt;/font&gt;&lt;/li&gt;&lt;li&gt;&lt;font data-font-src=&quot;https://fonts.googleapis.com/css?family=Fira+Sans&quot; style=&quot;font-size: 20px&quot; face=&quot;Fira Sans&quot;&gt;Generar visualizaciones a partir de la integración con técnicas de &lt;i&gt;Faceting Browsing&amp;nbsp;&lt;/i&gt;que permitan realizar un análisis en profundidad.&amp;nbsp;&lt;/font&gt;&lt;/li&gt;&lt;/ul&gt;&lt;/div&gt;" style="rounded=0;whiteSpace=wrap;html=1;fontFamily=Times New Roman;fontSize=20;fillColor=none;align=left;verticalAlign=top;spacingLeft=10;spacingRight=10;spacingTop=5;" parent="1" vertex="1">
          <mxGeometry x="910" y="65" width="420" height="550" as="geometry" />
        </mxCell>
        <mxCell id="c-rU0wkiur5srpV1t2_g-14" value="&lt;div style=&quot;&quot;&gt;&lt;b&gt;&lt;font face=&quot;Fira Sans&quot; data-font-src=&quot;https://fonts.googleapis.com/css?family=Fira+Sans&quot; style=&quot;font-size: 20px&quot;&gt;Falta de un mecanismo que permitan la integración de los datos actuales, y futuros, de la Convención Constitucional&amp;nbsp;con fuentes externas a lo largo del proceso.&lt;/font&gt;&lt;/b&gt;&lt;/div&gt;" style="rounded=0;whiteSpace=wrap;html=1;fontFamily=Times New Roman;fontSize=15;fillColor=none;align=center;verticalAlign=middle;spacingLeft=5;spacingRight=14;" parent="1" vertex="1">
          <mxGeometry x="220" y="300" width="590" height="80" as="geometry" />
        </mxCell>
        <mxCell id="c-rU0wkiur5srpV1t2_g-15" value="&lt;div style=&quot;&quot;&gt;&lt;font face=&quot;Fira Sans&quot; data-font-src=&quot;https://fonts.googleapis.com/css?family=Fira+Sans&quot; style=&quot;font-size: 20px&quot;&gt;El proceso Constituyente es nuevo, por lo que no hay mecanismos&amp;nbsp;establecidos que permitan una integración.&lt;/font&gt;&lt;/div&gt;" style="rounded=0;whiteSpace=wrap;html=1;fontFamily=Times New Roman;fontSize=15;fillColor=none;align=center;verticalAlign=top;spacingLeft=5;spacingRight=5;" parent="1" vertex="1">
          <mxGeometry x="220" y="530" width="320" height="110" as="geometry" />
        </mxCell>
        <mxCell id="c-rU0wkiur5srpV1t2_g-16" value="&lt;div style=&quot;&quot;&gt;&lt;font face=&quot;Fira Sans&quot; data-font-src=&quot;https://fonts.googleapis.com/css?family=Fira+Sans&quot; style=&quot;font-size: 20px&quot;&gt;Falta de información al alcance de la población en relación a comparación de datos con fuentes externas e históricas.&lt;/font&gt;&lt;/div&gt;" style="rounded=0;whiteSpace=wrap;html=1;fontFamily=Times New Roman;fontSize=15;fillColor=none;align=center;verticalAlign=top;spacingLeft=5;spacingRight=5;" parent="1" vertex="1">
          <mxGeometry x="220" y="40" width="320" height="110" as="geometry" />
        </mxCell>
        <mxCell id="c-rU0wkiur5srpV1t2_g-17" value="&lt;div style=&quot;&quot;&gt;&lt;font face=&quot;Fira Sans&quot; data-font-src=&quot;https://fonts.googleapis.com/css?family=Fira+Sans&quot; style=&quot;font-size: 20px&quot;&gt;No es posible comparar los datos de la Convención con fuentes externas y/o internacionales.&lt;/font&gt;&lt;/div&gt;" style="rounded=0;whiteSpace=wrap;html=1;fontFamily=Times New Roman;fontSize=15;fillColor=none;align=center;verticalAlign=top;spacingLeft=5;spacingRight=5;" parent="1" vertex="1">
          <mxGeometry x="220" y="160" width="320" height="80" as="geometry" />
        </mxCell>
        <mxCell id="c-rU0wkiur5srpV1t2_g-18" value="&lt;div style=&quot;&quot;&gt;&lt;font style=&quot;font-size: 20px&quot; face=&quot;Fira Sans&quot; data-font-src=&quot;https://fonts.googleapis.com/css?family=Fira+Sans&quot;&gt;El gran volumen de datos actuales, y futuros, no permiten realizar una integración manual.&lt;/font&gt;&lt;/div&gt;" style="rounded=0;whiteSpace=wrap;html=1;fontFamily=Times New Roman;fontSize=15;fillColor=none;align=center;verticalAlign=top;spacingLeft=5;spacingRight=5;" parent="1" vertex="1">
          <mxGeometry x="220" y="440" width="320" height="80" as="geometry" />
        </mxCell>
        <mxCell id="c-rU0wkiur5srpV1t2_g-19" value="&lt;div style=&quot;&quot;&gt;&lt;font style=&quot;font-size: 20px&quot; face=&quot;Fira Sans&quot; data-font-src=&quot;https://fonts.googleapis.com/css?family=Fira+Sans&quot;&gt;Imposibilidad de creación de visualizaciones que permitan analizar los datos de mejor manera, en profundidad, e informar a la población.&lt;/font&gt;&lt;/div&gt;" style="rounded=0;whiteSpace=wrap;html=1;fontFamily=Times New Roman;fontSize=15;fillColor=none;align=center;verticalAlign=top;spacingLeft=5;spacingRight=5;" parent="1" vertex="1">
          <mxGeometry x="550" y="50" width="260" height="160" as="geometry" />
        </mxCell>
        <mxCell id="c-rU0wkiur5srpV1t2_g-20" value="&lt;div&gt;&lt;font face=&quot;Fira Sans&quot; data-font-src=&quot;https://fonts.googleapis.com/css?family=Fira+Sans&quot; style=&quot;font-size: 20px&quot;&gt;Las plataformas actuales implementadas, no están diseñadas para la integración con fuentes externas históricas.&lt;/font&gt;&lt;/div&gt;" style="rounded=0;whiteSpace=wrap;html=1;fontFamily=Times New Roman;fontSize=15;fillColor=none;align=center;verticalAlign=top;spacingLeft=5;spacingRight=5;" parent="1" vertex="1">
          <mxGeometry x="550" y="500" width="260" height="130" as="geometry" />
        </mxCell>
      </root>
    </mxGraphModel>
  </diagram>
</mxfile>
